<svg id="Layer_1" data-name="Layer 1" xmlns="http://www.w3.org/2000/svg" xmlns:xlink="http://www.w3.org/1999/xlink" viewBox="0 0 241.79 241.79"><defs><style>.cls-1{fill:none;}.cls-2{fill:#332c2b;}.cls-3{clip-path:url(#clip-path);}.cls-4{fill:#2d2d2d;}.cls-5{fill:#ebebeb;}.cls-6{fill:#fefefe;}.cls-7{fill:#fdfdfd;}.cls-8{fill:#fcfcfc;}.cls-9{fill:#fbfbfb;}.cls-10{fill:#f7f7f7;}.cls-11{fill:#eaeaea;}.cls-12{fill:#efefef;}.cls-13{fill:#e1e1e1;}.cls-14{fill:#d2d2d2;}.cls-15{fill:#c7c7c7;}.cls-16{fill:#6d6d6d;}.cls-17{fill:#585858;}.cls-18{fill:#c6c6c6;}.cls-19{fill:#7b7b7b;}.cls-20{fill:#656565;}.cls-21{fill:#5d5d5d;}.cls-22{fill:#868686;}.cls-23{fill:#747474;}.cls-24{fill:#bebebe;}.cls-25{fill:#737373;}.cls-26{fill:#ababab;}.cls-27{fill:#575757;}.cls-28{fill:#d4d4d4;}.cls-29{fill:#bdbdbd;}.cls-30{fill:#c8c8c8;}.cls-31{fill:#5f5f5f;}.cls-32{fill:#5e5e5e;}.cls-33{fill:#626262;}.cls-34{fill:#aaa;}.cls-35{fill:#dadada;}.cls-36{fill:#dcdcdc;}.cls-37{fill:#2e2e2e;}.cls-38{fill:#323232;}.cls-39{fill:#373737;}.cls-40{fill:#353535;}.cls-41{fill:#3b3b3b;}.cls-42{fill:#383838;}.cls-43{fill:#313131;}.cls-44{fill:#3a3a3a;}.cls-45{fill:#484848;}.cls-46{fill:#4f4f4f;}.cls-47{fill:#d8d8d8;}.cls-48{fill:#6b6b6b;}.cls-49{fill:#686868;}.cls-50{fill:#7a7a7a;}.cls-51{fill:#b2b2b2;}</style><clipPath id="clip-path"><path class="cls-1" d="M36.64,146.89a138.23,138.23,0,0,1,25.6-80c1.9,7.2,88.3-35.6,85.7-47.2,37.9,34,57.1,74.6,57.1,121.2s-39.4,86-84.2,86S36.64,191.09,36.64,146.89Z"/></clipPath></defs><title>logo</title><g id="Layer_3" data-name="Layer 3"><path class="cls-2" d="M154.14,30.09c31.2,31.4,47,68.3,47,109.8,0,21.4-8.6,41.9-24.1,57.7-15.2,15.5-35.7,24.3-56.1,24.3-43.5,0-80.2-34.8-80.2-76a133.48,133.48,0,0,1,20.5-71.2,52.08,52.08,0,0,0,8.6,13.1A13.13,13.13,0,0,0,88.24,89a10,10,0,0,0,1.4-1.5l.8-.8.2-.2.1-.2c9.4-11.7,20.8-25.9,26.9-46.4a84.56,84.56,0,0,1,10.9,29.2,13,13,0,0,0,11.7,10.8,7.08,7.08,0,0,0,1.4.1,12.66,12.66,0,0,0,12.1-8.9,55.62,55.62,0,0,0,2.6-17.2c-.4-7.8-1-15.9-2.2-23.8m-6.2-11.4a176.57,176.57,0,0,1,4.2,35.5,53.28,53.28,0,0,1-2.4,15.9,8.67,8.67,0,0,1-8.3,6.1,3.4,3.4,0,0,1-1-.1,9.13,9.13,0,0,1-8.1-7.5,86.62,86.62,0,0,0-16.5-38.2c-4.8,24.1-17.1,39.7-28.3,53.5l-.9.9a12,12,0,0,1-1.1,1.2,9,9,0,0,1-12.7-.9,46.42,46.42,0,0,1-10.5-19.2,139,139,0,0,0-25.6,80c0,44.2,39.4,80,84.2,80s84.2-39.4,84.2-86-19.3-87.2-57.2-121.2Z"/><g class="cls-3"><path class="cls-4" d="M76.71,226.52c.08-2.08.14-4.16.22-6.23.14-3.25.42-6.49.81-9.72.37-3.06.53-6.14.66-9.22.12-2.84.19-5.7.2-8.55,0-.61.12-.55-.55-.67a19.37,19.37,0,0,1-3.5-.91,5.06,5.06,0,0,1-2.31-1.72,27.93,27.93,0,0,1-3.13-5.56,32,32,0,0,1-2.65-11.61c-.24-5.39-.19-10.79,0-16.18a.55.55,0,0,0-.26-.54,5.59,5.59,0,0,1-2.52-5.9,20.5,20.5,0,0,1,2.23-6.85,26.45,26.45,0,0,0,2.58-7.38,35.2,35.2,0,0,1,6-13.64A20.2,20.2,0,0,1,78,118a5.41,5.41,0,0,1,4.25-1.31c.39.06.79.05,1.19.09q5.52.49,11,1a5,5,0,0,0,3-.56c.68-.37,1.39-.69,2-1.11a7,7,0,0,1,5.4-.88c.28,0,.56.09.83.16s.29,0,.29-.22a18.55,18.55,0,0,1,1.17-5.13,3.43,3.43,0,0,0,.14-1.06c-.07-3.22-.22-6.44-.48-9.66a1.51,1.51,0,0,0-.09-.41,14.55,14.55,0,0,1-1.14-5.08c0-.37-.08-.74-.09-1.11s-.08-.32-.32-.27a3.09,3.09,0,0,1-1.45-.07,2.93,2.93,0,0,1-2.32-2.86,50.28,50.28,0,0,1,.11-5.35c.12-2,.28-4,.43-6a2.85,2.85,0,0,1,2.1-2.77c.28-.09.27-.26.28-.47.08-2.19.18-4.37.24-6.55a19,19,0,0,1,1.58-6.55c.35-.88.75-1.74,1.2-2.66-.34.13-.4,0-.29-.22a17.52,17.52,0,0,1,5.51-7.66,12.89,12.89,0,0,1,4.4-2.15c1-.28,1.93-.69,3-.88a14.52,14.52,0,0,1,7.81.58,20,20,0,0,1,8.43,5.37,12.56,12.56,0,0,1,2.48,4.18,1.27,1.27,0,0,0,.27.46,12,12,0,0,1,3.57,7.2c.34,2.72.63,5.44.7,8.17a9.44,9.44,0,0,1-.47,3.46c-.09.26,0,.33.25.31a1.62,1.62,0,0,1,1.69,1.14,11.09,11.09,0,0,1,.65,2.73,24.5,24.5,0,0,1,.12,6.68,8.06,8.06,0,0,1-1.35,3.69,3.44,3.44,0,0,1-2.32,1.52,2,2,0,0,1-1.34-.24c-.28-.18-.33-.06-.37.19a16.53,16.53,0,0,1-.94,3.61,5.43,5.43,0,0,1-.34.82,4.09,4.09,0,0,0-.5,2q-.21,4.78-.46,9.55a1.09,1.09,0,0,0,.3.86,3.69,3.69,0,0,1,.85,1.58c.44,1.68.74,3.39,1,5.09,0,.24.11.37.38.37a5.87,5.87,0,0,1,3.78,1.33,6.51,6.51,0,0,0,5.68,1.13,26.46,26.46,0,0,0,2.76-.68,5.53,5.53,0,0,1,2.29,0,27.6,27.6,0,0,1,8,2.55,49.22,49.22,0,0,1,4.84,2.37c3,1.73,3.87,2.87,4.69,6.24a55,55,0,0,1,1.08,7c.24,2,.66,4,1,6a.62.62,0,0,0,.12.29,5.89,5.89,0,0,1,1.35,3.84,51.76,51.76,0,0,1-.37,8.07,17,17,0,0,1-1.52,4.56,1.89,1.89,0,0,0-.17.78c0,3.71-.11,7.42-.06,11.13a42.78,42.78,0,0,1-1.3,10.87,83.89,83.89,0,0,1-3.67,11.35,4.82,4.82,0,0,1-3,2.88,30.69,30.69,0,0,1-5,1.38c-.38.07-.45.19-.37.57q1.28,5.84,2.51,11.67l.06.19c.29,1.07.45,2.17.66,3.26.31,1.52.58,3,.84,4.56s.55,3.15.8,4.73l.63,3.87c0,.24,0,.36-.26.33-.41,0-.84.12-1.24-.12a1.28,1.28,0,0,1-.22-.6c-.91-4.6-1.82-9.2-2.77-13.78-.7-3.37-1.39-6.74-2.22-10.09-.25-1-.78-2-1.09-3-.09-.31-.34-.33-.62-.27-1.06.2-2.12.39-3.19.57-1.95.33-3.9.61-5.87.82-.46,0-.59.16-.68.63a60.08,60.08,0,0,1-1.49,6.37,35.56,35.56,0,0,1-3.91,8.77c-2.07,3.28-4.08,6.59-6.13,9.89a3.12,3.12,0,0,1-.43.58.68.68,0,0,1-.93,0,.6.6,0,0,1,.13-.47c1.11-2.19,2.26-4.35,3.4-6.53.61-1.17,1.23-2.34,1.83-3.51,1-2,2.07-3.88,3-5.85a56.83,56.83,0,0,0,3.63-9.07l.06-.23c.06-.31,0-.43-.36-.42-.6,0-1.2.09-1.8.13-.85,0-1.69.13-2.54.13h-2c-2.16-.05-4.31,0-6.47.08a39,39,0,0,1-7.39-.65c-5.2-.92-10.35-2-15.51-3.15-1.15-.24-2.29-.49-3.42-.76a.9.9,0,0,0-1,.38A14.8,14.8,0,0,0,104,203.8a36.41,36.41,0,0,0-.54,4.16c-.12,1.25-.23,2.5-.36,3.75a7.61,7.61,0,0,1-.11,1.07c0,.13-.07.27-.23.27s-.18-.15-.2-.28a13.14,13.14,0,0,1-.15-1.65c-.07-1.27-.2-2.53-.18-3.81,0-.78-.07-1.55,0-2.34a12.49,12.49,0,0,1,.6-3.05c.51-1.59,1.07-3.16,1.66-4.72a1.66,1.66,0,0,0,.1-.29.29.29,0,0,0-.29-.4h-.39c-1.25,0-2.51,0-3.77,0a57.38,57.38,0,0,1-9.61-.91c-1.13-.22-2.25-.51-3.38-.74-.53-.1-.63,0-.54.53l.72,4.22c0,.21,0,.43.08.65s0,.29-.16.35-.28-.07-.35-.22c-.24-.5-.44-1-.67-1.51-.51-1.11-1-2.23-1.58-3.3a3.13,3.13,0,0,0-1.66-1.42c-.61-.24-1.24-.41-1.86-.64a.27.27,0,0,0-.32,0,2,2,0,0,0-.15,1c0,2.44,0,4.87,0,7.31,0,.55-.06,1.09,0,1.64s-.08,1.11-.13,1.67-.09,1.32-.15,2c-.18,2-.43,4.1-.64,6.16-.17,1.64-.36,3.28-.53,4.93-.06.54-.13,1.09-.17,1.63a11,11,0,0,0-.07,2.22,1.84,1.84,0,0,1,0,.57,2.53,2.53,0,0,0,0,1,.62.62,0,0,1,0,.19,12.5,12.5,0,0,0-.16,2c-.06.59-.08,1.2-.14,1.79,0,.31-.14.44-.45.42s-.69,0-1,0-.33-.06-.32-.28A10.1,10.1,0,0,1,76.71,226.52Z"/><path class="cls-5" d="M76.71,226.52a8.36,8.36,0,0,1,0,1c0,.37.12.48.46.44a4.45,4.45,0,0,1,.73,0c.32,0,.44-.06.45-.41.13-2.67.27-5.33.42-8s.47-5.11.76-7.66a109.39,109.39,0,0,0,1-15.77c0-1-.08-2-.11-2.93,0-.08-.06-.2,0-.24s.17.05.22.12c.12,1.93.22,3.87.18,5.81,0,2.21-.14,4.43-.35,6.64-.33,3.57-.76,7.13-1.12,10.69-.19,1.82-.31,3.65-.39,5.49-.07,1.62-.14,3.25-.28,4.87-.08,1,0,1.15,1,1.15h54.44c.3,0,.62-.09.9.11s.53.17.76-.08a7.31,7.31,0,0,1,.81,0h27a2.74,2.74,0,0,1,1,.09,2.92,2.92,0,0,0,1.33.13c.16-.11.06-.27,0-.39-.2-1.32-.42-2.64-.64-4-.68-4-1.37-8-2.19-12,0-.1,0-.2,0-.3a8.55,8.55,0,0,1,.45,1.94c.78,4,1.48,8,2.14,12,.13.79.24,1.58.39,2.36.06.34-.07.45-.39.44H77.5c-.86,0-.87,0-.86-.86A1.44,1.44,0,0,1,76.71,226.52Z"/><path class="cls-6" d="M143.71,168.87,140,167.82c0-.13.09-.12.14-.13a51.12,51.12,0,0,1,6.16-.92,5.16,5.16,0,0,1,1.57.12,4.22,4.22,0,0,1,3.09,2.49,11.91,11.91,0,0,1,.83,3.27c.1.69.17,1.38.28,2.06a.34.34,0,0,1-.24.44c-3.39,1.4-6.78,2.8-10.3,3.88a19.41,19.41,0,0,0-1.86.64,12,12,0,0,1-5.75.72,1.58,1.58,0,0,0-.61,0l1.24.8c0,.13-.14.14-.22.17-7.06,2.61-14.07,5.35-21.07,8.11a70.59,70.59,0,0,1-12.68,3.78,26.7,26.7,0,0,1-14.95-1.36,5,5,0,0,1-.76-.39,60.3,60.3,0,0,0,10.25-2.83l0-.1-1.59.18c-4.15.5-8.31,1-12.46,1.51a7.86,7.86,0,0,1-5.49-1.35,15.72,15.72,0,0,1-4.84-5.5,17.49,17.49,0,0,1-2.07-6.72,125.12,125.12,0,0,1-1-17.3,21.51,21.51,0,0,1,.27-3.49.45.45,0,0,0,0-.23,6.68,6.68,0,0,1,.17-3.23,24.88,24.88,0,0,1,1.25-4.72,5.45,5.45,0,0,1,3.92-3.48,2.93,2.93,0,0,1,1.89.16,66.58,66.58,0,0,1,6.49,3.38,6,6,0,0,1,1.65,2c.08.12,0,.18-.1.21a3.38,3.38,0,0,0-1.25.57.44.44,0,0,1-.37,0,1.46,1.46,0,0,0-1.5.58,2.77,2.77,0,0,0-.6,2.59,7.15,7.15,0,0,0,.81,1.86,11.29,11.29,0,0,0,1.29,1.77c.29.31.43.53.09.92a1.25,1.25,0,0,0-.12,1.38c.62,1.53,1.31,3,2,4.5a.53.53,0,0,1-.12.73,7.3,7.3,0,0,0-1.58,2.12.85.85,0,0,0-.17.49.26.26,0,0,0,.27,0,13.54,13.54,0,0,1,7.38-.62A80.17,80.17,0,0,1,98.41,169a49.19,49.19,0,0,0,15.85,1.46,98.83,98.83,0,0,0,12.34-1.77,51,51,0,0,1,6.63-.9,24.2,24.2,0,0,1,5.24.52c1.61.26,3.23.46,4.85.64l.38,0Z"/><path class="cls-6" d="M135.07,227.83a1.43,1.43,0,0,1-.61.08H79c-.53,0-.52,0-.49-.53.06-1.15.09-2.3.17-3.46.18-2.58.2-5.17.52-7.75.34-2.87.64-5.76.92-8.64.18-1.72.34-3.44.42-5.17s.19-3.29.12-4.93c-.06-1.29,0-2.59-.13-3.88,0-.17,0-.37.15-.48a9.3,9.3,0,0,0,1.94.73,3.65,3.65,0,0,1,2.34,2c.76,1.57,1.49,3.16,2.25,4.75,0-.26-.05-.52-.09-.77-.27-1.63-.54-3.27-.84-4.9-.06-.36,0-.38.34-.32,1.61.32,3.2.75,4.83,1a55,55,0,0,0,8.51.72h4.62c.43,0,.43,0,.28.4-.71,1.88-1.4,3.78-2,5.7a10.24,10.24,0,0,0-.49,3,70.42,70.42,0,0,0,.42,7.54c.09-.87.16-1.74.25-2.61a65,65,0,0,1,.77-6.53,14.72,14.72,0,0,1,2.67-6,.85.85,0,0,1,1-.34c6.29,1.42,12.61,2.76,19,3.93a43.16,43.16,0,0,0,9.36.64c2-.08,4,0,6,0,1.74,0,3.47-.14,5.19-.31.47,0,.47,0,.34.41a56.21,56.21,0,0,1-4.29,10.62q-3.9,7.48-7.82,15C135.19,227.64,135.12,227.73,135.07,227.83Z"/><path class="cls-6" d="M155.87,140.43l-4,6.74a56.89,56.89,0,0,1,1.39-14.06c-.19,0-.19.1-.21.16a30,30,0,0,0-2,7.78c-.16,1.91-.25,3.82-.5,5.72a27.51,27.51,0,0,1-1.22,5.79,22.11,22.11,0,0,0-.94,5.61c-.18,2.29-.21,4.59-.19,6.89,0,.31,0,.42-.4.37a7.9,7.9,0,0,0-1.88,0c-1.8.15-3.59,0-5.39.07a51.34,51.34,0,0,0-8.56,1.05c-4.07.78-8.13,1.61-12.21,2.38a37.71,37.71,0,0,1-8.56.48,48.38,48.38,0,0,1-7.86-1c-.22,0-.41-.06-.3-.38a41.29,41.29,0,0,1,3.84-8.93,9.23,9.23,0,0,1,4.42-3.9c3.4-1.44,6.83-2.77,10.26-4.13,4.21-1.66,8.45-3.27,12.56-5.18,1-.44,1.86-.94,2.76-1.46a1.8,1.8,0,0,0,.93-2.17,23.65,23.65,0,0,0-.8-2.85c-.79-2.36-1.7-4.68-2.36-7.09a14.7,14.7,0,0,1-.67-3.9,5.44,5.44,0,0,1,.26-1.74c.84-2.59,1.82-5.13,2.79-7.67a14.9,14.9,0,0,0,1-6.22v-.25c.22,0,.27.16.34.28a3.19,3.19,0,0,1,.42,1.15c.19,1,.38,2,.52,3a6.35,6.35,0,0,1-.44,3.28c-.37.93-.75,1.85-1.12,2.78a2.59,2.59,0,0,0-.11.37,3.65,3.65,0,0,1-.42,1.15c.18-.26.2-.66.5-.92.69-1.43,1.39-2.85,2.08-4.29a.9.9,0,0,1,1-.57,4.46,4.46,0,0,1,3.69,2.24,22.52,22.52,0,0,1,1.65,5.08c.18.77.33,1.54.51,2.38a.74.74,0,0,0,.1-.45,12.44,12.44,0,0,0-.57-4.37c-.25-.86-.49-1.73-.76-2.59-.1-.34,0-.37.29-.3.56.13,1.14.22,1.7.32a8.27,8.27,0,0,0,4.18-.4c.53-.18,1.08-.32,1.62-.47a.8.8,0,0,1,.46,0c0,.13-.1.15-.16.19a5.82,5.82,0,0,0-2.65,4.56c-.1,1.93-.13,3.85-.07,5.77.12-1.58.24-3.15.51-4.71a7,7,0,0,1,2-4,3.23,3.23,0,0,1,3.43-.86,72.35,72.35,0,0,1,10.32,4.13,7.09,7.09,0,0,1,3.88,4.65,55.22,55.22,0,0,1,1.67,8.34c.18,1.45.27,2.91.32,4.38,0,.17.06.37-.26.3a15.73,15.73,0,0,0-7.91.47,45.74,45.74,0,0,0-8.81,3.55,9.53,9.53,0,0,0-3.5,3.17c-.62.93-1.21,1.88-1.74,2.87a.81.81,0,0,1-.29.39c.05-.3.09-.54.14-.78a17.24,17.24,0,0,1,1.95-5.28c1.27-2.19,2.35-4.48,3.45-6.76a2.44,2.44,0,0,1,.37-.85C156.14,139.92,156.15,140.26,155.87,140.43Z"/><path class="cls-6" d="M141.05,183.59l-5.2.31c0-.18.16-.19.25-.24,3.2-1.62,6.4-3.22,9.75-4.52a48.07,48.07,0,0,0,8.63-4.48c.11-.07.21-.15.32-.21a6.67,6.67,0,0,0,2.85-3.76c0-.09.15-.24,0-.31s-.16.1-.23.18A34.71,34.71,0,0,1,154,174c-.23.2-.34.19-.45-.12a54.41,54.41,0,0,1-2.83-10.66,14.43,14.43,0,0,1-.13-2.08,3.13,3.13,0,0,1,.7-2,13,13,0,0,1,1.68-1.79,35.41,35.41,0,0,1,8.27-5.54,22.93,22.93,0,0,1,7.76-2c1-.1,2.05-.16,3.08-.17.31,0,.4.09.43.4.39,4.95.3,9.91.27,14.87,0,4-.12,8-.36,12A32.77,32.77,0,0,1,171,184c-.15.52-.3,1-.46,1.55a15,15,0,0,0-.41,1.76,20.69,20.69,0,0,1-3.45,8.12,2,2,0,0,1-.86.69,5.13,5.13,0,0,1-1.48.43c-3.4.51-6.76,1.24-10.16,1.76-5.12.79-10.24,1.54-15.4,1.93a39,39,0,0,1-7-.23,148.65,148.65,0,0,1-26-5.7c-.11,0-.23,0-.31-.14s.19-.12.29-.16q11.64-3.91,23.29-7.84a64.18,64.18,0,0,1,9.49-2.15c.84-.15,1.67-.28,2.51-.41Z"/><path class="cls-6" d="M90.28,133.65c.17.55.35,1.1.51,1.65a23.26,23.26,0,0,1,1,4.2,26.42,26.42,0,0,1-.12,5c-.07.84-.18,1.66-.27,2.49,0,.13,0,.26-.1.36s-.18-.18-.25-.28l-.92-1.24A14.43,14.43,0,0,0,85.64,142c-2.71-1.52-5.5-2.88-8.31-4.21a8.86,8.86,0,0,0-6.7-.42c-.27.08-.54.15-.8.25s-.38,0-.33-.28c.23-1.34.53-2.67.87-4a28.6,28.6,0,0,1,8.52-13.81,13.59,13.59,0,0,1,1.63-1.29,1.71,1.71,0,0,1,1.17-.26c3.14.33,6.28.7,9.43,1,1.22.09,2.43.17,3.65.2a6.61,6.61,0,0,0,2.74-.55c1.2-.5,2.33-1.13,3.49-1.71s1.17-.58,1.4.68c.35,2,.51,4,.68,6q.39,4.56.64,9.14a1.1,1.1,0,0,0,.09.39c0-.13,0-.25,0-.38,0-3,.18-6.06,0-9.09a56.52,56.52,0,0,0-.61-6.63,1.77,1.77,0,0,0-.15-.51c-.16-.28,0-.32.21-.31a3.81,3.81,0,0,1,1.81.47,1.3,1.3,0,0,1,.5.61c1.23,2.36,2.51,4.69,3.94,6.94a9.65,9.65,0,0,0,3.61,3.37c.06.06.14,0,.21,0a.67.67,0,0,0-.06-.12,12.67,12.67,0,0,1-3.5-4.13c-.87-1.71-1.66-3.45-2.4-5.21a5.34,5.34,0,0,1-.33-2.79,17.78,17.78,0,0,1,1.07-4.25,1.76,1.76,0,0,1,.09-.2c.17,0,.17.2.22.31a64.41,64.41,0,0,1,3.27,9.77,12.1,12.1,0,0,0,.8,2.33,4.56,4.56,0,0,0,2.41,2.32,33.42,33.42,0,0,0,5.52,1.67c2.63.64,5.28,1.23,7.91,1.84.42.1.43.1.14.43-5.39,6.22-10.77,12.45-16.41,18.45a34.44,34.44,0,0,0-4.79,6.92A92,92,0,0,0,102.08,166l-.18.41c-.16,0-.12-.14-.12-.22a56.63,56.63,0,0,1,.1-11.57,95.07,95.07,0,0,0,.4-11.93.24.24,0,0,0-.09-.24c-.09.84-.17,1.66-.26,2.48q-.6,6.12-1.21,12.23-.51,5.1-1,10.2c0,.33-.11.39-.41.24-.83-.43-1.68-.83-2.53-1.24-.15-.07-.28-.13-.2-.37a13.85,13.85,0,0,0,.62-4.14,66.21,66.21,0,0,0-.61-10.14.79.79,0,0,0-.13-.35c0,1.09.09,2.17.12,3.26a34.34,34.34,0,0,1-.19,6,23.47,23.47,0,0,1-.79,3.1c0,.06,0,.12-.21.17,0-1,0-1.94,0-2.89a38.82,38.82,0,0,0-.47-5.6,4.27,4.27,0,0,0-.25-1,10.44,10.44,0,0,1-.48-6.64c.3-1.41.61-2.81,1-4.2a18,18,0,0,0,.1-9.33c-.29-1.17-.54-2.35-.87-3.51a.7.7,0,0,0-.18-.38c.09.88.2,1.71.27,2.55a22.18,22.18,0,0,1,0,6.25c-.35,1.69-.79,3.35-1.29,5a2.65,2.65,0,0,1-.33.78l0-.54a18.61,18.61,0,0,0-.18-5.11,17,17,0,0,0-1.2-3.24c-.38-.88-.8-1.75-1.2-2.62-.19-.11-.19-.33-.26-.45A2.34,2.34,0,0,1,90.28,133.65Z"/><path class="cls-6" d="M138.36,68.69c.16.38.3.76.48,1.13a16.74,16.74,0,0,1,1.47,6c0,.46.05.92.12,1.38a10.14,10.14,0,0,1-.12,2.06c-.33,4.64-.8,9.26-1.46,13.86A18.57,18.57,0,0,1,134,103c-.47.54-1,1-1.48,1.56-.25.27-.41.3-.54-.08a.6.6,0,0,0-.08-.08c-.14,0-.17.15-.23.24a16.07,16.07,0,0,1-1.67,1.92,5.61,5.61,0,0,1-3.49,1.69,24.35,24.35,0,0,1-7.33-.24,5.92,5.92,0,0,1-3.11-1.73,12.31,12.31,0,0,1-1.35-1.53c-.1-.15-.21-.24-.34,0s-.22.12-.35,0a19.17,19.17,0,0,1-5.45-5.68,10.5,10.5,0,0,1-1.31-4.4,160.77,160.77,0,0,1-.49-16.28,15.08,15.08,0,0,1,.62-3.44,3.09,3.09,0,0,0,.09-.68,19.35,19.35,0,0,1,1.69-7.93,1,1,0,0,0,.1-.4,6.08,6.08,0,0,1,.21-1.41c.15-.6.33-1.18.49-1.77A5.43,5.43,0,0,1,113.73,59a10.7,10.7,0,0,1,3.33-.54c.22,0,.43,0,.75,0a11.58,11.58,0,0,0-1.17-.28,1.78,1.78,0,0,1,.7-.08c2.23,0,4.45.1,6.67.14a25.21,25.21,0,0,0,6.13-.41c.6-.13,1-.15,1.31.47A3.08,3.08,0,0,0,133,59.39a6,6,0,0,1-1.25-.31,2.51,2.51,0,0,0,.85.49,10.42,10.42,0,0,0,2.68.72.88.88,0,0,1,.71.49,7.57,7.57,0,0,1,.76,2,.31.31,0,0,0,.13.2l-.1-.9a4.48,4.48,0,0,1,.5,1.78,11.4,11.4,0,0,0,.93,4l.07.14C138.23,68.23,138.36,68.45,138.36,68.69Z"/><path class="cls-6" d="M164.59,227.81a.78.78,0,0,1-.52.1H136.34c-.18,0-.39.05-.51-.16l2.13-3.48c1.56-2.53,3.11-5.06,4.68-7.57a35.76,35.76,0,0,0,4.06-10c.42-1.59.76-3.2,1-4.82,0-.3.15-.43.47-.46,3.27-.35,6.51-.86,9.74-1.51.13,0,.32-.14.38.1.32,1.23,1,2.34,1.27,3.59,1,4.27,1.89,8.57,2.77,12.87.74,3.65,1.46,7.3,2.19,11A2.65,2.65,0,0,1,164.59,227.81Z"/><path class="cls-6" d="M108.58,101.66l.84,1A23.57,23.57,0,0,0,114,106.4a1.44,1.44,0,0,1,.39.31,7.25,7.25,0,0,0,4.3,2.65,24,24,0,0,0,8.32.26,7.93,7.93,0,0,0,4.59-2.54,5.86,5.86,0,0,1,.44-.42,26.3,26.3,0,0,0,4.59-4.66,2.9,2.9,0,0,1,.19-.22.63.63,0,0,1,0,.42c-.24,4.7-.46,9.39-.49,14.09a6.31,6.31,0,0,1-.65,2.78,41.53,41.53,0,0,1-5.46,8.41.43.43,0,0,1-.42.2,59.79,59.79,0,0,1-10.46-1.82,18,18,0,0,1-2.92-1.09,6.87,6.87,0,0,1-3-3,23,23,0,0,1-2-5.46c-.1-.41-.22-.81-.3-1.23a12.22,12.22,0,0,0-1.79-4.35,3.21,3.21,0,0,1-.55-1.88c0-2.23-.13-4.47-.27-6.7C108.57,102,108.58,101.89,108.58,101.66Z"/><path class="cls-6" d="M109.86,154.29a.66.66,0,0,1,.2-.34c6.09-7.14,12.16-14.29,18.43-21.28.59-.66,1.21-1.29,1.8-1.95a17.86,17.86,0,0,1,2.83-2.31.62.62,0,0,1,.14,0,10.08,10.08,0,0,0-.38,1.94,6,6,0,0,0,.61,3.25c.74,1.48,1.57,2.91,2.26,4.42a12.11,12.11,0,0,1,1.13,3.46,2.33,2.33,0,0,1-1.14,2.46,13.08,13.08,0,0,1-2.91,1.3c-2.34.77-4.7,1.47-7,2.27-3.17,1.07-6.2,2.52-9.27,3.85C114.3,152.29,112.11,153.28,109.86,154.29Z"/><path class="cls-6" d="M87.13,163.67a1.61,1.61,0,0,0,.13-1.71c-.83-1.56-1.74-3.08-2.7-4.57a.67.67,0,0,0-.88-.25.5.5,0,0,1-.62-.21c-.65-.79-1.33-1.56-1.91-2.41a2.38,2.38,0,0,1-.34-2,1.08,1.08,0,0,1,1.8-.63,9.69,9.69,0,0,1,1.58,1.62,73.16,73.16,0,0,1,5.45,7.88,11.28,11.28,0,0,1,.89,2c.06.14.11.28.17.41s.11,0,.11-.09a5,5,0,0,0-.67-3.17c-1-1.63-2.17-3.19-3.33-4.73a23.9,23.9,0,0,0-2.42-2.89,3.3,3.3,0,0,1-.74-1,1.23,1.23,0,0,1,1.12-1.59.66.66,0,0,1,.48.22c.36.33.72.65,1.06,1,1.78,1.87,3.44,3.85,5,5.87a12.5,12.5,0,0,1,2.19,4.41c0-.3,0-.61,0-.91s0-.62-.09-.92a13.83,13.83,0,0,0-.85-2.67,21.49,21.49,0,0,1-1-3.32,2.39,2.39,0,0,1,.19-1.72c.27-.48.53-.5.81,0a15.86,15.86,0,0,1,1.93,4.52,2.72,2.72,0,0,1,.05.49q0,4.5.07,9c0,.34,0,.45-.42.35-2.41-.66-4.84-1.27-7.24-2a3,3,0,0,1-1.41-.9,12.5,12.5,0,0,1-2.3-4.24,1.26,1.26,0,0,1,.16-1.21.74.74,0,0,1,1.22-.08,5,5,0,0,1,.62.88,29.92,29.92,0,0,1,1.68,3.29A3.87,3.87,0,0,1,87.13,163.67Z"/><path class="cls-6" d="M71.05,142.71a10.32,10.32,0,0,1,2.24-1.5.15.15,0,0,0-.19-.08c-1.42.34-2.73.81-3.38,2.32a37.46,37.46,0,0,0-2.86,9.72.34.34,0,0,0,0,.08s-.08,0-.1,0a8.66,8.66,0,0,1-1.63-2.78,2.26,2.26,0,0,1,0-1.43,16.87,16.87,0,0,1,1.08-2.68,40.53,40.53,0,0,1,3.29-5.57,7.65,7.65,0,0,1,4-2.69h.2a5.1,5.1,0,0,0-2,2.23.61.61,0,0,0,.35-.18,8.84,8.84,0,0,1,2.28-1.28,2.83,2.83,0,0,1,1.82-.05,22.28,22.28,0,0,1,2.94,1.13,60.48,60.48,0,0,1,8,4.3c.38.24.75.5,1.11.77A7.1,7.1,0,0,1,91,152.16c-.11.8-.28,1.59-.44,2.47-.22-.45-.38-.83-.58-1.18a17.73,17.73,0,0,0-4.81-5.7,33.69,33.69,0,0,0-7.63-4.45,10.5,10.5,0,0,0-5.62-.8C71.64,142.55,71.35,142.64,71.05,142.71Z"/><path class="cls-6" d="M167.36,147.68a14.72,14.72,0,0,1,2.3,0,1.64,1.64,0,0,1,.68.21c-.7.06-1.4.08-2.09.16a17.84,17.84,0,0,0-4.66,1.19,59.7,59.7,0,0,0-6.6,3.05,16.51,16.51,0,0,0-6.67,6.76.84.84,0,0,1-.28.36c0-.23,0-.46.05-.69a21.58,21.58,0,0,1,.44-2.77,6,6,0,0,1,1.62-3,38.71,38.71,0,0,1,7.56-6,19.75,19.75,0,0,1,5-2.26,25.54,25.54,0,0,1,4.73-.86,8.36,8.36,0,0,1,2,.05,3.37,3.37,0,0,1,3,2.7,8.27,8.27,0,0,1-.06,3.8c-.11-.5-.13-1-.26-1.5a6.65,6.65,0,0,0-.41-1.16,1.27,1.27,0,0,0-1.1-.78,12.15,12.15,0,0,0-3.3.21c-.74.12-1.48.29-2.22.43a.88.88,0,0,1-.47.15C166.79,147.64,167.08,147.75,167.36,147.68Z"/><path class="cls-6" d="M142.53,89.94a5.48,5.48,0,0,0,1-2.32,19.43,19.43,0,0,0-.29-6.13,2,2,0,0,0-.27-.71c-.2-.33-.43-.35-.67,0a4.13,4.13,0,0,0-.58,1.17.21.21,0,0,1-.15.14c0-.43.05-.87.13-1.3a1.58,1.58,0,0,1,1.11-1.18c.4-.16.59-.08.74.33a10.53,10.53,0,0,1,.52,2.48,23.3,23.3,0,0,1,.12,5.84,7.55,7.55,0,0,1-.91,2.92,2.74,2.74,0,0,1-1.19,1.17.77.77,0,0,1-.92-.14,1.35,1.35,0,0,1-.54-1.3c.24-1.61.39-3.23.58-4.85a.81.81,0,0,1,.09-.4,1.61,1.61,0,0,1,.77,2.14,1.48,1.48,0,0,0,.39-2.27c-.2-.23-.43-.44-.63-.67s-.48-.25-.44-.54c.07-.54-.07-1.13.38-1.57a.69.69,0,0,1,.68-.28.62.62,0,0,1,.43.55c.41,2.24.69,4.47-.38,6.63a.49.49,0,0,0,0,.12c-.05,0,0,.11,0,.17a.09.09,0,1,0,.11,0Z"/><path class="cls-6" d="M105.38,87.64c0,1,.07,2,.12,3a.35.35,0,0,1-.31.4,1.71,1.71,0,0,1-2.2-1.42A33.93,33.93,0,0,1,103,85c.1-2.13.26-4.25.43-6.38a2,2,0,0,1,.59-1.49c.21-.17.33-.19.45.09a21.87,21.87,0,0,1,.81,2.61.82.82,0,0,1,0,.48c-.12-.23-.22-.46-.35-.68s-.23-.44-.5-.43-.37.29-.45.51a10.31,10.31,0,0,0-.49,3,17.82,17.82,0,0,0,.05,3.65,5.58,5.58,0,0,0,.9,2.18c.22.06.21.3.34.42a1.16,1.16,0,0,1-.23-.6,10.56,10.56,0,0,1-.36-6.64c.1-.54.46-.73.85-.53a.49.49,0,0,1,.3.49,2,2,0,0,0,0,.42,2.31,2.31,0,0,1-.72,2.13c-.61.56-.57.92-.12,1.64.14.22.29.43.43.64.36.07.38.37.42.64A1.87,1.87,0,0,0,105.38,87.64Z"/><path class="cls-7" d="M113.08,53.79l.19-.24a13.22,13.22,0,0,0-3.88,3.25c-.13,0-.13-.06-.07-.14,1.77-2.68,3.86-4.94,7.16-5.68a2.72,2.72,0,0,1,.64,0,14.38,14.38,0,0,0-4,2,.56.56,0,0,1-.12.2c.07-.09.2,0,.3-.09a7.63,7.63,0,0,1,7-.65,30.88,30.88,0,0,0,3.24,1.1.9.9,0,0,1,.24.12,17.22,17.22,0,0,1-2.27-.32,12.67,12.67,0,0,1-2.12-.54,5.75,5.75,0,0,0-4.63.28,9.58,9.58,0,0,0-1.45.84C113.13,53.93,113.07,53.92,113.08,53.79Z"/><path class="cls-7" d="M115.11,56.74a12.63,12.63,0,0,0,2.59-.84,8.22,8.22,0,0,1,5.37-.64,11.31,11.31,0,0,1,2.28,1c0,.18-.15.1-.25.09a11.65,11.65,0,0,0-2.34-.6,8.6,8.6,0,0,0-3.06.4,10.41,10.41,0,0,1,3.1.3c-.66,0-1.33,0-2,0a31.54,31.54,0,0,0-4.55.76,13.19,13.19,0,0,1-4.06.29l-.42-.06a.45.45,0,0,1-.18-.07A15.62,15.62,0,0,0,115,57c.24-.25.6-.08.81-.22a1.78,1.78,0,0,1-.46.07C115.25,56.89,115.11,56.94,115.11,56.74Z"/><path class="cls-7" d="M120.88,49.11a12.68,12.68,0,0,1,5.65.14,6.06,6.06,0,0,1,4.56,5.53,1.25,1.25,0,0,1,0,.38,12,12,0,0,0-.68-2,4.46,4.46,0,0,0-1.27-1.71c1,1.79,1.79,3.56.29,5.47a4.81,4.81,0,0,0-.59-4.91,6,6,0,0,0-4.44-2.48l.38,0a3,3,0,0,0,.42,0,13.57,13.57,0,0,0-3.12-.26,6.14,6.14,0,0,1-1,0C120.93,49.22,120.88,49.19,120.88,49.11Z"/><path class="cls-7" d="M115,55.27l.94-.5a10.34,10.34,0,0,0-3.69,1.4c-.07,0,0-.08,0-.11a10.14,10.14,0,0,1,4.53-2.64,8.28,8.28,0,0,1,3.8.23l.37.08c-.12.23-.31.07-.47.08h0a5.33,5.33,0,0,0-2-.07L117,54a.51.51,0,0,1-.39.15c.34-.12.76,0,1.16-.08a7.88,7.88,0,0,1,2.64.37,10.55,10.55,0,0,0-5.32.88C115,55.38,115,55.41,115,55.27Z"/><path class="cls-8" d="M133.51,57.56a6.84,6.84,0,0,0,.52-1.39,1.8,1.8,0,0,0,0-.89,4.14,4.14,0,0,1-.5,1.23,1.76,1.76,0,0,1-1.12.75,2.45,2.45,0,0,0,.23-3.53l.29.31c.06,0,.09.15.17.12a.14.14,0,0,0,0-.2,5.86,5.86,0,0,0-1.4-1.76c0-.13.05-.16.16-.09a8.67,8.67,0,0,1,1.67,1.29,2.81,2.81,0,0,1,.1,4.33C133.45,57.73,133.47,57.65,133.51,57.56Z"/><path class="cls-8" d="M126.35,51.11a4.86,4.86,0,0,1,2.09,2.12c0,.07.12.15,0,.3a7.56,7.56,0,0,0-3.69-2.73,10.28,10.28,0,0,0-4.69-.39c2-.79,5.89-.68,7.16.89a1.86,1.86,0,0,1-.69-.28,3.48,3.48,0,0,1-.94-.32c-.23-.09-.48-.11-.7-.19l.51.13A2.46,2.46,0,0,1,126.35,51.11Z"/><path class="cls-7" d="M174.69,151.46a16.55,16.55,0,0,1-.93,6.43C173.34,156.37,173.91,152.31,174.69,151.46Z"/><path class="cls-9" d="M121.9,51.48a4.75,4.75,0,0,1,5.43,2.15,4.62,4.62,0,0,0-1.65-1.17,5.3,5.3,0,0,1,2,4C126.9,53.51,125.09,51.74,121.9,51.48Z"/><path class="cls-9" d="M135.52,55.34c.08.21.16.4.22.61a1.93,1.93,0,0,1-1.16,2.23.78.78,0,0,1-.19,0c.14-.27.43-.43.44-.78-.28.1-.41.36-.77.46a11.77,11.77,0,0,0,.77-1.19,2,2,0,0,0,.24-1.37.65.65,0,0,1,.19.41,2.57,2.57,0,0,1,.09.44.86.86,0,0,0,.09-.59C135.43,55.49,135.33,55.36,135.52,55.34Z"/><path class="cls-10" d="M130.61,57.08a7,7,0,0,0,1.11-1.39,4.26,4.26,0,0,0,.07-1.78,3.51,3.51,0,0,1,.51,1.79.63.63,0,0,1-.21.4A4.12,4.12,0,0,1,130.61,57.08Z"/><path class="cls-11" d="M105.38,87.64a2.06,2.06,0,0,0-.45-1.17c.13-.13,0-.24,0-.35a1.07,1.07,0,0,1,.49-1.33Z"/><path class="cls-12" d="M114.41,56.12a27.15,27.15,0,0,1,4-1,15.59,15.59,0,0,1-3.73,1.12C114.55,56.22,114.43,56.31,114.41,56.12Z"/><path class="cls-12" d="M128.34,56.71a3.42,3.42,0,0,0,1.07-2A1.52,1.52,0,0,1,128.34,56.71Z"/><path class="cls-13" d="M132.45,54.58a1.31,1.31,0,0,1-.27,2.05A2.67,2.67,0,0,0,132.45,54.58Z"/><path class="cls-14" d="M120.41,53.81c.16,0,.33,0,.47-.08a9,9,0,0,1,2.37.73C122.31,54.23,121.36,54,120.41,53.81Z"/><path class="cls-15" d="M120.88,49.11c.38.17.78,0,1.17.07l-2.34.23A2.86,2.86,0,0,1,120.88,49.11Z"/><path class="cls-16" d="M138.36,68.69a4.33,4.33,0,0,1-.43-1c.21,0,.14.34.37.3a2.1,2.1,0,0,1,.36.81C138.5,68.87,138.54,68.51,138.36,68.69Z"/><path class="cls-17" d="M137.76,123.7a16.19,16.19,0,0,1-.71,1.52l-.08,0,.71-1.71Z"/><path class="cls-18" d="M115.11,56.74l.3.08c-.15.3-.43,0-.63.13a8.24,8.24,0,0,1-1.57,0C113.84,56.91,114.47,56.79,115.11,56.74Z"/><path class="cls-19" d="M117.8,54.11l-1.57.22A1.56,1.56,0,0,1,117,54C117.28,54.19,117.55,54,117.8,54.11Z"/><path class="cls-20" d="M90.28,133.65a6,6,0,0,1-.41-1.21,3,3,0,0,1,.49,1Z"/><path class="cls-21" d="M126.35,51.11l-1-.4c0-.2.13-.08.21-.07a4,4,0,0,1,.94.38Z"/><path class="cls-22" d="M155.87,140.43a3.35,3.35,0,0,1,.55-.9,3.73,3.73,0,0,1-.47,1.06Z"/><path class="cls-23" d="M167.36,147.68l-1.34.23a2.37,2.37,0,0,1,1-.31Z"/><path class="cls-24" d="M115,55.27l.17.09-1,.44A1.69,1.69,0,0,1,115,55.27Z"/><path class="cls-25" d="M114.78,57l.63-.13.63-.08a2.28,2.28,0,0,1-1,.3Z"/><path class="cls-14" d="M118.42,53.74a3.64,3.64,0,0,1,2,.07A12,12,0,0,0,118.42,53.74Z"/><path class="cls-26" d="M135.52,55.34l-.08.24-.37-1A1.21,1.21,0,0,1,135.52,55.34Z"/><path class="cls-27" d="M113.26,53l-.74.5a1.19,1.19,0,0,1,.56-.61Z"/><path class="cls-28" d="M113.08,53.79l.15.08a1.46,1.46,0,0,1-.7.52A2.87,2.87,0,0,1,113.08,53.79Z"/><path class="cls-29" d="M125.1,56.36l.25-.09a1.83,1.83,0,0,1,.67.33A2.28,2.28,0,0,1,125.1,56.36Z"/><path class="cls-30" d="M109.32,56.66l.07.14a1.85,1.85,0,0,1-.48.6A2.43,2.43,0,0,1,109.32,56.66Z"/><path class="cls-24" d="M131.82,52.11l-.16.09a1.57,1.57,0,0,1-.52-.44A1.58,1.58,0,0,1,131.82,52.11Z"/><path class="cls-21" d="M104.55,88.32l.37.74a1.13,1.13,0,0,1-.48-.56Z"/><path class="cls-31" d="M113.32,127.41a1.29,1.29,0,0,1,.55.4,1.67,1.67,0,0,1-.7-.33Z"/><path class="cls-32" d="M133.06,54a1.23,1.23,0,0,1,.24.66,1.88,1.88,0,0,1-.41-.58C133,54.05,133,54,133.06,54Z"/><path class="cls-33" d="M142.53,89.94a1,1,0,0,1-.43.5l.36-.72Z"/><path class="cls-34" d="M114.41,56.12l.23.08a1.54,1.54,0,0,1-.71.11A.78.78,0,0,1,114.41,56.12Z"/><path class="cls-35" d="M133.51,57.56l.08.17c-.06.17-.2.26-.39.37A1.48,1.48,0,0,1,133.51,57.56Z"/><path class="cls-4" d="M118.11,95.81c-.55-.5-1.09-1-1.63-1.52s-.43-.74.07-1.13c.25-.2.53-.36.8-.54a1.81,1.81,0,0,0,.52-.43,4,4,0,0,0,2.36-.06,3.7,3.7,0,0,1,1.78.1,1.69,1.69,0,0,0,1.13.07,2.94,2.94,0,0,1,1.92.09c.43.13.86.28,1.28.42.27.09.53.13.69-.19a.15.15,0,0,1,.17-.05c.56.42,1.13.83,1.69,1.26.38.29.41.48.15.88a4.56,4.56,0,0,1-1.76,1.5.27.27,0,0,1-.15,0,9.2,9.2,0,0,0-2.67.16,14.19,14.19,0,0,1-4.55-.25A11,11,0,0,0,118.11,95.81Z"/><path class="cls-4" d="M112.49,71.22a14,14,0,0,1,3.22-.47,2.88,2.88,0,0,0,.42,0,4.58,4.58,0,0,1,3.06.64c.27.14.24.23,0,.39a6.55,6.55,0,0,1-1.38,1c-.51.2-1.09-.13-1.64-.23a9.55,9.55,0,0,0-4.12.1,4.29,4.29,0,0,0-1.88,1l-.42.36L109.7,74c.24-.5.48-1,.73-1.49a1.76,1.76,0,0,1,.87-1c.13,0,.25-.13.4-.08.06.28-.25.26-.32.4A2.08,2.08,0,0,1,112.49,71.22Z"/><path class="cls-4" d="M135.36,72.42a1.1,1.1,0,0,1,.92.6c.3.52.56,1.07.81,1.62a.33.33,0,0,1,0,.32h0a5,5,0,0,0-3.19-1.52,11.76,11.76,0,0,0-4.34.36.73.73,0,0,1-.67-.14c-.38-.33-.77-.63-1.17-.93-.18-.14-.22-.22,0-.35a5.07,5.07,0,0,1,3.13-.67c.89.13,1.81.12,2.71.28.26,0,.52.12.78.18a1.06,1.06,0,0,1,.86.32.49.49,0,0,0,.14.11S135.31,72.48,135.36,72.42Z"/><path class="cls-36" d="M127.2,92.57c0,.68,0,.7-.74.48s-1.24-.45-1.88-.59a2.22,2.22,0,0,0-1.25,0,1.77,1.77,0,0,1-1.28,0,3.5,3.5,0,0,0-2-.07c-.44.08-.88.15-1.33.21s-.66,0-.8-.39a4.31,4.31,0,0,1,3.95-.83,3.63,3.63,0,0,0,1.67,0A4.48,4.48,0,0,1,127.2,92.57Z"/><path class="cls-37" d="M114.94,76.3s.08-.15,0-.15c-.55,0-1.11-.29-1.67,0a1.06,1.06,0,0,0-.48.37.82.82,0,0,1-.87.4c-.23,0-.45,0-.69,0a6.2,6.2,0,0,1,2.73-1.4,11.46,11.46,0,0,1,3.15,0,2.43,2.43,0,0,1,1.41.63c.27.26.57.47.86.71.1.09.19.2.1.34a.31.31,0,0,1-.36.16c-.28-.07-.57-.12-.65-.48s-.48-.61-.86-.75c-.19-.07-.23,0-.23.19,0,.68-.11.83-.79.9a7.44,7.44,0,0,1-2.25-.2c-.25-.05-.37-.2-.33-.43s.26-.13.41-.15.29.14.44.2A.26.26,0,0,1,114.94,76.3Z"/><path class="cls-37" d="M130.59,77.61c.06-.07.32-.18.06-.21-.5-.06-1-.32-1.51-.13a.94.94,0,0,0-.64.55c-.12.36-.41.39-.7.42a.33.33,0,0,1-.35-.2c-.07-.14,0-.24.14-.32a4.11,4.11,0,0,1,3.14-1.08c.45.07.92.09,1.38.13a5.85,5.85,0,0,1,3.64,2l-1.19-.2c-.16,0-.21-.14-.26-.25a1.67,1.67,0,0,0-1-.8c-.2-.08-.26,0-.27.2,0,.74,0,.75-.76.79a6.5,6.5,0,0,1-1.92-.07,1,1,0,0,1-.64-.32c-.07-.42-.07-.42.31-.41.22,0,.22,0,.58.22A.29.29,0,0,1,130.59,77.61Z"/><path class="cls-36" d="M118.11,95.81a.94.94,0,0,1,.8-.1c.74.16,1.47.37,2.22.47a15.77,15.77,0,0,0,4.34-.1,2.28,2.28,0,0,1,1.81.13,10,10,0,0,1-3.36,1.05,7.75,7.75,0,0,1-4.4-.61A5.6,5.6,0,0,1,118.11,95.81Z"/><path class="cls-38" d="M120.45,100.89a3.56,3.56,0,0,1,4.68-.17A6.57,6.57,0,0,0,120.45,100.89Z"/><path class="cls-39" d="M118.49,75.51a8.24,8.24,0,0,0-5.68-.29C114.16,74.21,117.85,74.41,118.49,75.51Z"/><path class="cls-40" d="M133.82,76.62c-1.52-.6-2.76-.64-5.31-.14.75-.93,4-.9,5.48,0C134,76.67,133.92,76.67,133.82,76.62Z"/><path class="cls-41" d="M113.12,78.21a5.39,5.39,0,0,0,3.93,0C116.58,79.14,114.25,79.14,113.12,78.21Z"/><path class="cls-42" d="M129.76,79.34a5.43,5.43,0,0,0,1.83.54,10.94,10.94,0,0,0,1.89-.1C132.72,80.55,130.31,80.27,129.76,79.34Z"/><path class="cls-43" d="M124.3,86.78a1.65,1.65,0,0,1,.76-.8.71.71,0,0,1,.94.46c0,.19,0,.34-.21.31A8.33,8.33,0,0,0,124.3,86.78Z"/><path class="cls-38" d="M121.35,86.27a13.76,13.76,0,0,0-1.43,0c-.21,0-.3-.11-.24-.32a.73.73,0,0,1,1-.43A1.74,1.74,0,0,1,121.35,86.27Z"/><path class="cls-44" d="M121.31,77.86c-.06-.61-.09-1.22-.18-1.82a6.58,6.58,0,0,0-.63-1.72,2.17,2.17,0,0,1,1,1.76c0,.6,0,1.19-.07,1.78Z"/><path class="cls-45" d="M127.25,84.92c.54.89.57,1.73-.15,2.06a2,2,0,0,0,.28-1A5.81,5.81,0,0,0,127.25,84.92Z"/><path class="cls-46" d="M118.48,84.37a2.68,2.68,0,0,0,.1,2C117.88,86.18,117.94,85.2,118.48,84.37Z"/><path class="cls-47" d="M135.36,72.42l.5.57c-.51-.28-1-.58-1.52-.83C134.79,72,135,72,135.36,72.42Z"/><path class="cls-47" d="M112.49,71.22a15.69,15.69,0,0,0-1.47.91,3.42,3.42,0,0,1,.68-.74,1.18,1.18,0,0,0,.18-.13A.39.39,0,0,1,112.49,71.22Z"/><path class="cls-48" d="M130.59,77.61l.45.52a.73.73,0,0,1-.78-.27.39.39,0,0,0-.45-.14c-.18,0-.11.22-.14.35-.15-.42-.12-.46.31-.46Z"/><path class="cls-49" d="M114.94,76.3c0,.22,0,.22.37.51a.64.64,0,0,1-.9-.35Z"/><path class="cls-50" d="M133.82,76.62l.17-.09a1.46,1.46,0,0,1,.67.59Z"/><path class="cls-51" d="M125.58,50.64l-.21.07-.88-.22A1.84,1.84,0,0,1,125.58,50.64Z"/><path class="cls-7" d="M122.56,94.14l-3.84-.2c-.28,0-.61,0-.76-.34-.07-.18-.06-.29.15-.33a7.7,7.7,0,0,1,3.6-.28,7.73,7.73,0,0,0,2.15.09,7.49,7.49,0,0,1,3,.64c.08,0,.2,0,.2.16s-.1.17-.19.21a1,1,0,0,1-.52.09C125.05,94.21,123.81,94.18,122.56,94.14Z"/><path class="cls-9" d="M122.51,95.1l2.72.15a1.1,1.1,0,0,1,.31,0c.18.06.43.13.4.34s-.28.1-.43.11a30.35,30.35,0,0,1-5.64-.17c-.11,0-.28,0-.29-.12s.12-.22.24-.26a1.2,1.2,0,0,1,.42-.07c.75,0,1.51,0,2.27,0Z"/></g></g></svg>